<svg width="18" height="13" viewBox="0 0 18 13" fill="none" xmlns="http://www.w3.org/2000/svg">
<path fill-rule="evenodd" clip-rule="evenodd" d="M2.66675 4.55554C2.66675 4.00326 3.11446 3.55554 3.66675 3.55554H14.3334C14.8857 3.55554 15.3334 4.00326 15.3334 4.55554C15.3334 5.10783 14.8857 5.55554 14.3334 5.55554H3.66675C3.11446 5.55554 2.66675 5.10783 2.66675 4.55554Z" fill="black"/>
<path fill-rule="evenodd" clip-rule="evenodd" d="M0 1C0 0.447715 0.447715 0 1 0H17C17.5523 0 18 0.447715 18 1C18 1.55228 17.5523 2 17 2H1C0.447715 2 0 1.55228 0 1Z" fill="black"/>
<path fill-rule="evenodd" clip-rule="evenodd" d="M0 8.11108C0 7.5588 0.447715 7.11108 1 7.11108H17C17.5523 7.11108 18 7.5588 18 8.11108C18 8.66337 17.5523 9.11108 17 9.11108H1C0.447715 9.11108 0 8.66337 0 8.11108Z" fill="black"/>
<path fill-rule="evenodd" clip-rule="evenodd" d="M2.66675 11.6666C2.66675 11.1143 3.11446 10.6666 3.66675 10.6666H14.3334C14.8857 10.6666 15.3334 11.1143 15.3334 11.6666C15.3334 12.2189 14.8857 12.6666 14.3334 12.6666H3.66675C3.11446 12.6666 2.66675 12.2189 2.66675 11.6666Z" fill="black"/>
</svg>
