<svg width="20" height="20" viewBox="0 0 20 20" fill="none" xmlns="http://www.w3.org/2000/svg">
<path fill-rule="evenodd" clip-rule="evenodd" d="M10 1.75C5.44365 1.75 1.75 5.44365 1.75 10C1.75 14.5563 5.44365 18.25 10 18.25C14.5563 18.25 18.25 14.5563 18.25 10C18.25 5.44365 14.5563 1.75 10 1.75ZM0.25 10C0.25 4.61522 4.61522 0.25 10 0.25C15.3848 0.25 19.75 4.61522 19.75 10C19.75 15.3848 15.3848 19.75 10 19.75C4.61522 19.75 0.25 15.3848 0.25 10Z" fill="black"/>
<path fill-rule="evenodd" clip-rule="evenodd" d="M11.7039 5.75042C12.0626 5.54328 12.5213 5.66615 12.7285 6.02485L17.8945 14.9708C18.1016 15.3296 17.9787 15.7883 17.62 15.9954C17.2613 16.2025 16.8026 16.0797 16.5955 15.721L11.4295 6.77496C11.2224 6.41626 11.3452 5.95756 11.7039 5.75042Z" fill="black"/>
<path fill-rule="evenodd" clip-rule="evenodd" d="M7.17114 6.3999C7.17114 5.98569 7.50693 5.6499 7.92114 5.6499H18.2531C18.6674 5.6499 19.0031 5.98569 19.0031 6.3999C19.0031 6.81412 18.6674 7.1499 18.2531 7.1499H7.92114C7.50693 7.1499 7.17114 6.81412 7.17114 6.3999Z" fill="black"/>
<path fill-rule="evenodd" clip-rule="evenodd" d="M11.383 0.404471C11.7417 0.611609 11.8645 1.07031 11.6574 1.42901L6.49141 10.375C6.28427 10.7337 5.82557 10.8566 5.46687 10.6494C5.10816 10.4423 4.9853 9.9836 5.19244 9.6249L10.3584 0.678902C10.5656 0.320201 11.0243 0.197334 11.383 0.404471Z" fill="black"/>
<path fill-rule="evenodd" clip-rule="evenodd" d="M2.37995 4.00457C2.73865 3.79743 3.19736 3.9203 3.40449 4.279L8.5705 13.225C8.77763 13.5837 8.65477 14.0424 8.29606 14.2495C7.93736 14.4567 7.47866 14.3338 7.27152 13.9751L2.10552 5.02911C1.89838 4.67041 2.02125 4.21171 2.37995 4.00457Z" fill="black"/>
<path fill-rule="evenodd" clip-rule="evenodd" d="M0.99707 13.6001C0.99707 13.1859 1.33286 12.8501 1.74707 12.8501H12.0791C12.4933 12.8501 12.8291 13.1859 12.8291 13.6001C12.8291 14.0143 12.4933 14.3501 12.0791 14.3501H1.74707C1.33286 14.3501 0.99707 14.0143 0.99707 13.6001Z" fill="black"/>
<path fill-rule="evenodd" clip-rule="evenodd" d="M14.5329 9.35052C14.8916 9.55765 15.0145 10.0164 14.8073 10.3751L9.64131 19.3211C9.43417 19.6798 8.97547 19.8026 8.61677 19.5955C8.25807 19.3884 8.1352 18.9296 8.34234 18.5709L13.5083 9.62495C13.7155 9.26625 14.1742 9.14338 14.5329 9.35052Z" fill="black"/>
</svg>
