<svg width="17" height="17" viewBox="0 0 17 17" fill="none" xmlns="http://www.w3.org/2000/svg">
<path fill-rule="evenodd" clip-rule="evenodd" d="M11.7188 1.50372C11.0874 1.50372 10.4819 1.74154 10.0354 2.16486L2.748 9.07446C2.00395 9.77994 1.58594 10.7368 1.58594 11.7345C1.58594 12.7322 2.00395 13.689 2.748 14.3945C3.49205 15.0999 4.5012 15.4963 5.55345 15.4963C6.6057 15.4963 7.61485 15.0999 8.3589 14.3945L15.6463 7.48487C15.956 7.19124 16.4581 7.19124 16.7677 7.48487C17.0774 7.77848 17.0774 8.25454 16.7677 8.54816L9.48033 15.4578C8.43886 16.4452 7.02632 17 5.55345 17C4.08058 17 2.66804 16.4452 1.62657 15.4578C0.585094 14.4703 0 13.131 0 11.7345C0 10.338 0.585094 8.99865 1.62657 8.01117L8.91398 1.10156C9.65787 0.396245 10.6668 0 11.7188 0C12.7708 0 13.7797 0.396244 14.5236 1.10156C15.2675 1.80688 15.6854 2.7635 15.6854 3.76098C15.6854 4.75845 15.2675 5.71507 14.5236 6.42039L7.22829 13.33C6.78199 13.7532 6.17668 13.9909 5.54552 13.9909C4.91436 13.9909 4.30905 13.7532 3.86275 13.33C3.41645 12.9068 3.16572 12.3329 3.16572 11.7345C3.16572 11.136 3.41645 10.5621 3.86275 10.1389L10.5954 3.76284C10.9053 3.46939 11.4074 3.46967 11.7168 3.76347C12.0263 4.05726 12.026 4.53331 11.7162 4.82676L4.98418 11.2022C4.83551 11.3434 4.75167 11.535 4.75167 11.7345C4.75167 11.9341 4.8353 12.1255 4.98418 12.2667C5.13306 12.4079 5.33498 12.4872 5.54552 12.4872C5.75606 12.4872 5.95798 12.4079 6.10686 12.2667L13.4022 5.3571C13.8485 4.93381 14.0995 4.3595 14.0995 3.76098C14.0995 3.16232 13.8487 2.58817 13.4022 2.16486C12.9557 1.74154 12.3502 1.50372 11.7188 1.50372Z" fill="black"/>
</svg>
