<svg width="18" height="20" viewBox="0 0 18 20" fill="none" xmlns="http://www.w3.org/2000/svg">
<path fill-rule="evenodd" clip-rule="evenodd" d="M0 4.66663C0 4.11434 0.447715 3.66663 1 3.66663H17C17.5523 3.66663 18 4.11434 18 4.66663C18 5.21891 17.5523 5.66663 17 5.66663H1C0.447715 5.66663 0 5.21891 0 4.66663Z" fill="black"/>
<path fill-rule="evenodd" clip-rule="evenodd" d="M7.22228 2.11108C7.016 2.11108 6.81817 2.19303 6.67231 2.33889C6.52644 2.48475 6.4445 2.68258 6.4445 2.88886V3.66664H11.5556V2.88886C11.5556 2.68258 11.4737 2.48475 11.3278 2.33889C11.1819 2.19303 10.9841 2.11108 10.7778 2.11108H7.22228ZM13.5556 3.66664V2.88886C13.5556 2.15215 13.263 1.44561 12.742 0.924676C12.2211 0.403742 11.5145 0.111084 10.7778 0.111084H7.22228C6.48556 0.111084 5.77903 0.403742 5.25809 0.924676C4.73716 1.44561 4.4445 2.15215 4.4445 2.88886V3.66664H2.77783C2.22555 3.66664 1.77783 4.11436 1.77783 4.66664V17.1111C1.77783 17.8478 2.07049 18.5543 2.59142 19.0753C3.11236 19.5962 3.8189 19.8889 4.55561 19.8889H13.4445C14.1812 19.8889 14.8877 19.5962 15.4087 19.0753C15.9296 18.5543 16.2223 17.8478 16.2223 17.1111V4.66664C16.2223 4.11436 15.7746 3.66664 15.2223 3.66664H13.5556ZM3.77783 5.66664V17.1111C3.77783 17.3174 3.85978 17.5152 4.00564 17.6611C4.1515 17.8069 4.34933 17.8889 4.55561 17.8889H13.4445C13.6508 17.8889 13.8486 17.8069 13.9945 17.6611C14.1403 17.5152 14.2223 17.3174 14.2223 17.1111V5.66664H3.77783Z" fill="black"/>
<path fill-rule="evenodd" clip-rule="evenodd" d="M10.2929 14.4848C10.6834 14.8753 11.3166 14.8753 11.7071 14.4848C12.0976 14.0943 12.0976 13.4611 11.7071 13.0706L10.4142 11.7777L11.7071 10.4848C12.0976 10.0943 12.0976 9.46113 11.7071 9.0706C11.3166 8.68008 10.6834 8.68008 10.2929 9.0706L9 10.3635L7.70711 9.0706C7.31658 8.68008 6.68342 8.68008 6.29289 9.0706C5.90237 9.46113 5.90237 10.0943 6.29289 10.4848L7.58579 11.7777L6.29289 13.0706C5.90237 13.4611 5.90237 14.0943 6.29289 14.4848C6.68342 14.8753 7.31658 14.8753 7.70711 14.4848L9 13.1919L10.2929 14.4848Z" fill="black"/>
</svg>
