<svg width="24" height="24" viewBox="0 0 24 24" fill="none" xmlns="http://www.w3.org/2000/svg">
<path fill-rule="evenodd" clip-rule="evenodd" d="M22 2H2L2 22H22V2ZM2 0C0.895431 0 0 0.89543 0 2V22C0 23.1046 0.89543 24 2 24H22C23.1046 24 24 23.1046 24 22V2C24 0.895431 23.1046 0 22 0H2Z" fill="black"/>
<path fill-rule="evenodd" clip-rule="evenodd" d="M11 17C11 16.4477 11.4477 16 12 16H19C19.5523 16 20 16.4477 20 17C20 17.5523 19.5523 18 19 18H12C11.4477 18 11 17.5523 11 17Z" fill="black"/>
<path fill-rule="evenodd" clip-rule="evenodd" d="M5.29289 5.29289C5.68342 4.90237 6.31658 4.90237 6.70711 5.29289L11.7071 10.2929C12.0976 10.6834 12.0976 11.3166 11.7071 11.7071L6.70711 16.7071C6.31658 17.0976 5.68342 17.0976 5.29289 16.7071C4.90237 16.3166 4.90237 15.6834 5.29289 15.2929L9.58579 11L5.29289 6.70711C4.90237 6.31658 4.90237 5.68342 5.29289 5.29289Z" fill="black"/>
</svg>
