<svg width="20" height="16" viewBox="0 0 20 16" fill="none" xmlns="http://www.w3.org/2000/svg">
<path fill-rule="evenodd" clip-rule="evenodd" d="M2.14401 8.00004C2.22424 8.13599 2.32338 8.29817 2.44097 8.48025C2.81392 9.05772 3.36597 9.82519 4.08189 10.5888C5.53196 12.1356 7.53595 13.5455 10.0001 13.5455C12.4642 13.5455 14.4682 12.1356 15.9183 10.5888C16.6342 9.82519 17.1862 9.05772 17.5592 8.48025C17.6768 8.29817 17.7759 8.13599 17.8562 8.00004C17.7759 7.86409 17.6768 7.70192 17.5592 7.51984C17.1862 6.94237 16.6342 6.1749 15.9183 5.41126C14.4682 3.86451 12.4642 2.45459 10.0001 2.45459C7.53595 2.45459 5.53196 3.86451 4.08189 5.41126C3.36597 6.1749 2.81392 6.94237 2.44097 7.51984C2.32338 7.70192 2.22424 7.86409 2.14401 8.00004ZM20.0001 8L19.8942 7.55214L19.8927 7.54918L19.8896 7.54314L19.8799 7.52404C19.8717 7.50824 19.8604 7.48637 19.8458 7.45882C19.8167 7.40373 19.7746 7.32589 19.7198 7.22853C19.6104 7.03396 19.4497 6.76065 19.2393 6.43479C18.8196 5.78499 18.1955 4.9161 17.3773 4.04338C15.7592 2.31739 13.2632 0.45459 10.0001 0.45459C6.73693 0.45459 4.24092 2.31739 2.62281 4.04338C1.80464 4.9161 1.18055 5.78499 0.76089 6.43479C0.550439 6.76065 0.389761 7.03396 0.280313 7.22853C0.225551 7.32589 0.183502 7.40373 0.154352 7.45882C0.139774 7.48637 0.128412 7.50824 0.12029 7.52404L0.110535 7.54314L0.107483 7.54918L0.106414 7.55131C0.106414 7.55131 0.0685427 7.71075 0 8L0.10565 7.55283C-0.0351137 7.83436 -0.0351137 8.16573 0.10565 8.44726L0 8C0.0945735 8.40123 0.10565 8.44726 0.10565 8.44726L0.106414 8.44878L0.107483 8.45091L0.110535 8.45695L0.12029 8.47605C0.128412 8.49185 0.139774 8.51372 0.154352 8.54127C0.183502 8.59636 0.225551 8.6742 0.280313 8.77155C0.389761 8.96613 0.550439 9.23944 0.76089 9.5653C1.18055 10.2151 1.80464 11.084 2.62281 11.9567C4.24092 13.6827 6.73693 15.5455 10.0001 15.5455C13.2632 15.5455 15.7592 13.6827 17.3773 11.9567C18.1955 11.084 18.8196 10.2151 19.2393 9.5653C19.4497 9.23944 19.6104 8.96613 19.7198 8.77155C19.7746 8.6742 19.8167 8.59636 19.8458 8.54127C19.8604 8.51372 19.8717 8.49185 19.8799 8.47605L19.8896 8.45695L19.8927 8.45091L19.8937 8.44878L20.0001 8ZM20.0001 8L19.8945 8.44726C20.0353 8.16573 20.0349 7.83367 19.8942 7.55214L20.0001 8Z" fill="black"/>
<path fill-rule="evenodd" clip-rule="evenodd" d="M9.99996 6.54553C9.19663 6.54553 8.54541 7.19675 8.54541 8.00008C8.54541 8.8034 9.19663 9.45462 9.99996 9.45462C10.8033 9.45462 11.4545 8.8034 11.4545 8.00008C11.4545 7.19675 10.8033 6.54553 9.99996 6.54553ZM6.54541 8.00008C6.54541 6.09218 8.09206 4.54553 9.99996 4.54553C11.9078 4.54553 13.4545 6.09218 13.4545 8.00008C13.4545 9.90797 11.9078 11.4546 9.99996 11.4546C8.09206 11.4546 6.54541 9.90797 6.54541 8.00008Z" fill="black"/>
</svg>
