<svg width="18" height="20" viewBox="0 0 18 20" fill="none" xmlns="http://www.w3.org/2000/svg">
<path fill-rule="evenodd" clip-rule="evenodd" d="M2.95595 10.127C2.53869 10.127 2.20044 10.4652 2.20044 10.8825V17.0267C2.20044 17.444 2.53869 17.7822 2.95595 17.7822H15.2445C15.6617 17.7822 16 17.444 16 17.0267V10.8825C16 10.4652 15.6617 10.127 15.2445 10.127H2.95595ZM0.200439 10.8825C0.200439 9.36064 1.43412 8.12695 2.95595 8.12695H15.2445C16.7663 8.12695 18 9.36064 18 10.8825V17.0267C18 18.5486 16.7663 19.7822 15.2445 19.7822H2.95595C1.43412 19.7822 0.200439 18.5486 0.200439 17.0267V10.8825Z" fill="black"/>
<path fill-rule="evenodd" clip-rule="evenodd" d="M9.00009 1.89998C7.90492 1.89998 7.04731 2.27085 6.39857 2.7805C5.7209 3.31286 5.37507 4.08531 5.24753 5.07401C5.11776 6.07994 5.22652 7.22107 5.39104 8.3727L3.60913 8.62725C3.4418 7.45592 3.29919 6.10824 3.46232 4.84371C3.62767 3.56194 4.11902 2.28227 5.2866 1.36503C6.22331 0.629172 7.46608 0.0999756 9.00009 0.0999756C10.8438 0.0999756 12.1609 0.782156 13.035 1.68727C13.8844 2.56687 14.2839 3.62246 14.391 4.3727C14.4613 4.86476 14.1194 5.32064 13.6274 5.39093C13.1353 5.46122 12.6794 5.11932 12.6091 4.62725C12.5496 4.21083 12.2991 3.51641 11.7402 2.93768C11.2059 2.38446 10.3564 1.89998 9.00009 1.89998Z" fill="black"/>
</svg>
