<svg width="14" height="14" viewBox="0 0 14 14" fill="none" xmlns="http://www.w3.org/2000/svg">
<path fill-rule="evenodd" clip-rule="evenodd" d="M14 6.55734C14 6.10465 13.609 5.73767 13.1267 5.73767H0.901197C0.418912 5.73767 0.0279436 6.10465 0.0279436 6.55734C0.0279436 7.01004 0.418912 7.37702 0.901197 7.37702H13.1267C13.609 7.37702 14 7.01004 14 6.55734Z" fill="black"/>
<path fill-rule="evenodd" clip-rule="evenodd" d="M6.39649 0.240076C6.05546 0.560178 6.05546 1.07917 6.39649 1.39927L11.8918 6.55738L6.39649 11.7155C6.05546 12.0356 6.05546 12.5546 6.39649 12.8747C6.73751 13.1948 7.29043 13.1948 7.63145 12.8747L13.7442 7.13697C14.0853 6.81687 14.0853 6.29788 13.7442 5.97778L7.63145 0.240076C7.29043 -0.0800255 6.73751 -0.0800255 6.39649 0.240076Z" fill="black"/>
</svg>
