<svg width="18" height="18" viewBox="0 0 18 18" fill="none" xmlns="http://www.w3.org/2000/svg">
<path fill-rule="evenodd" clip-rule="evenodd" d="M9.15045 0.509041C9.34398 0.852424 9.31773 1.27745 9.08344 1.59442C8.33807 2.60282 7.9794 3.84526 8.07265 5.09575C8.1659 6.34625 8.70489 7.52175 9.59158 8.40844C10.4783 9.29513 11.6538 9.83411 12.9043 9.92737C14.1548 10.0206 15.3972 9.66194 16.4056 8.91658C16.7226 8.68228 17.1476 8.65604 17.491 8.84957C17.8344 9.04309 18.032 9.42027 17.9958 9.81276C17.8382 11.5182 17.1981 13.1434 16.1505 14.4984C15.1029 15.8533 13.6911 16.8819 12.0803 17.4637C10.4695 18.0456 8.72626 18.1566 7.05462 17.7839C5.38299 17.4112 3.85208 16.57 2.64102 15.359C1.42997 14.1479 0.588866 12.617 0.216131 10.9454C-0.156604 9.27376 -0.0455545 7.53054 0.536287 5.91971C1.11813 4.30889 2.1467 2.89708 3.50163 1.84949C4.85657 0.801904 6.48184 0.161862 8.18726 0.00425972C8.57975 -0.0320113 8.95693 0.165658 9.15045 0.509041ZM6.41347 2.46688C5.81157 2.70737 5.24289 3.03129 4.72496 3.43173C3.67055 4.24696 2.87012 5.34562 2.41734 6.59916C1.96455 7.8527 1.87813 9.20927 2.16819 10.5101C2.45825 11.811 3.1128 13.0023 4.05524 13.9448C4.99767 14.8872 6.18902 15.5418 7.48989 15.8318C8.79075 16.1219 10.1473 16.0355 11.4009 15.5827C12.6544 15.1299 13.7531 14.3295 14.5683 13.2751C14.9687 12.7571 15.2926 12.1884 15.5331 11.5865C14.6448 11.8757 13.7018 11.9924 12.7555 11.9218C11.0273 11.793 9.40279 11.0481 8.17737 9.82265C6.95195 8.59723 6.20707 6.97269 6.07819 5.24449C6.00762 4.29818 6.12431 3.35522 6.41347 2.46688Z" fill="black"/>
</svg>
