<svg width="14" height="14" viewBox="0 0 14 14" fill="none" xmlns="http://www.w3.org/2000/svg">
<path fill-rule="evenodd" clip-rule="evenodd" d="M0 6.55734C0 6.10465 0.390969 5.73767 0.873254 5.73767H13.0988C13.5811 5.73767 13.9721 6.10465 13.9721 6.55734C13.9721 7.01004 13.5811 7.37702 13.0988 7.37702H0.873254C0.390969 7.37702 0 7.01004 0 6.55734Z" fill="black"/>
<path fill-rule="evenodd" clip-rule="evenodd" d="M7.60351 0.240076C7.94454 0.560178 7.94454 1.07917 7.60351 1.39927L2.10822 6.55738L7.60351 11.7155C7.94454 12.0356 7.94454 12.5546 7.60351 12.8747C7.26249 13.1948 6.70957 13.1948 6.36855 12.8747L0.25577 7.13697C-0.0852567 6.81687 -0.0852567 6.29788 0.25577 5.97778L6.36855 0.240076C6.70957 -0.0800255 7.26249 -0.0800255 7.60351 0.240076Z" fill="black"/>
</svg>
