<svg width="17" height="17" viewBox="0 0 17 17" fill="none" xmlns="http://www.w3.org/2000/svg">
<path fill-rule="evenodd" clip-rule="evenodd" d="M16.2703 0.729787C16.563 1.0225 16.563 1.49708 16.2703 1.78979L8.02538 10.0347C7.73267 10.3274 7.25809 10.3274 6.96538 10.0347C6.67267 9.74195 6.67267 9.26737 6.96538 8.97466L15.2103 0.729787C15.503 0.437076 15.9775 0.437076 16.2703 0.729787Z" fill="black"/>
<path fill-rule="evenodd" clip-rule="evenodd" d="M16.2702 0.729808C16.4738 0.93341 16.5428 1.23565 16.4477 1.50742L11.2009 16.4981C11.0994 16.7882 10.8311 16.9869 10.524 16.9994C10.217 17.0119 9.93336 16.8357 9.80854 16.5549L6.92749 10.0725L0.445123 7.19148C0.164287 7.06666 -0.0119007 6.78306 0.000626824 6.47599C0.0131544 6.16892 0.211859 5.90062 0.501929 5.79909L15.4926 0.552355C15.7644 0.457235 16.0666 0.526206 16.2702 0.729808ZM2.78158 6.58945L7.79976 8.81975C7.96932 8.89511 8.10491 9.0307 8.18027 9.20027L10.4106 14.2184L14.5185 2.48153L2.78158 6.58945Z" fill="black"/>
</svg>
