<svg width="411" height="823" viewBox="0 0 411 823" fill="none" xmlns="http://www.w3.org/2000/svg">
<g clip-path="url(#clip0_29_149)">
<path d="M-238 545.495C-186.085 557.218 -139.458 496.049 -113.323 460.325C-57.8355 384.478 -47.8144 292.876 -26.1635 203.866C-1.26116 101.49 52.5441 -4.08693 154.693 -46.3396C195.345 -63.1544 237.329 -67.6878 280.886 -63.5821C318.556 -60.0312 357.931 -54.4453 389.646 -32.3182C446.711 7.49446 434.402 87.1637 408.12 141.528C385.111 189.123 348.127 226.617 307.318 259.383C257.362 299.494 202.872 332.798 145.693 361.512C96.9612 385.984 46.556 406.909 -2.38396 430.956C-46.5801 452.672 -91.9313 476.268 -126.682 511.958C-155.797 541.86 -177.242 582.284 -170.356 625.076C-165.347 656.204 -147.87 686.899 -121.66 704.752C-99.9072 719.569 -75.0751 723.009 -49.2798 720.573C5.52335 715.398 58.8954 694.16 106.282 666.951C153.322 639.941 196.675 606.177 233.232 566.054C279.676 515.079 318.306 457.004 360.561 402.629C394.558 358.881 428.523 314.876 473.49 281.742C495.215 265.734 519.636 248.675 545.018 238.825C564.915 231.104 587.853 229.397 608.967 228.877C649.829 227.873 692.465 239.032 717.159 274.163C740.748 307.72 747.788 352.562 740.276 392.397C732.963 431.171 715.169 468.395 688.643 497.652C645.263 545.497 589.028 585.4 530.239 611.813C458.996 643.82 384.124 666.454 310.255 691.393C253.403 710.588 195.206 730.308 144.746 763.585C118.098 781.158 92.13 805.364 78.6179 834.828C67.4206 859.245 75.511 878.094 89.7971 898.682C99.8856 913.222 119.325 921.472 135.272 927.483C177.791 943.511 219.784 926.809 261.654 917.251" stroke="#CEFCFF" stroke-opacity="0.34" stroke-width="3" stroke-linecap="round"/>
</g>
<defs>
<clipPath id="clip0_29_149">
<rect width="411" height="823" fill="white"/>
</clipPath>
</defs>
</svg>
