<svg width="275" height="341" viewBox="0 0 275 341" fill="none" xmlns="http://www.w3.org/2000/svg">
<path fill-rule="evenodd" clip-rule="evenodd" d="M255.642 100.728L232.193 4.61704C231.705 2.61573 232.928 0.596768 234.926 0.10756C236.923 -0.381649 238.938 0.844152 239.427 2.84546L266.731 114.757C266.761 114.878 266.784 114.999 266.801 115.12C269.472 120.053 271.626 125.623 273.071 131.65C279.143 156.973 270.405 180.788 253.556 184.844C236.706 188.899 218.124 171.659 212.053 146.336C205.981 121.014 214.718 97.1982 231.568 93.1427C239.726 91.1793 248.289 94.2074 255.642 100.728ZM226.103 260.861C224.887 262.292 224.255 264.129 224.333 266.006L226.94 329.224C227.019 331.137 225.002 332.418 223.309 331.53L166.459 301.71C164.852 300.867 162.993 300.641 161.231 301.074C151.73 303.409 141.793 304.649 131.557 304.649C63.0128 304.649 7.44663 248.977 7.44663 180.303C7.44663 111.628 63.0128 55.9566 131.557 55.9566C165.1 55.9566 195.535 69.2883 217.871 90.9515C219.083 92.1273 220.997 92.1808 222.398 91.2374C224.265 89.9794 224.79 87.2825 223.175 85.7124C199.487 62.6775 167.175 48.4958 131.557 48.4958C58.9001 48.4958 0 107.508 0 180.303C0 253.098 58.9001 312.109 131.557 312.109C142.396 312.109 152.928 310.796 163.005 308.32L223.664 340.138C228.742 342.801 234.795 338.958 234.558 333.22L231.773 265.698C248.777 245.686 259.916 220.518 262.525 192.862C262.767 190.293 259.834 188.584 257.413 189.465C256.165 189.919 255.221 191.019 255.094 192.343C252.6 218.36 242.108 242.026 226.103 260.861ZM265.83 133.393C268.571 144.822 267.877 155.585 264.919 163.648C261.94 171.769 257.067 176.325 251.816 177.589C246.565 178.853 240.159 177.012 233.822 171.133C227.531 165.296 222.034 156.022 219.293 144.594C216.553 133.165 217.246 122.401 220.204 114.338C223.184 106.217 228.057 101.661 233.307 100.397C238.558 99.1334 244.965 100.974 251.301 106.854C257.592 112.69 263.09 121.964 265.83 133.393ZM58.8268 145.317L142.075 127.677C163.655 123.105 184.848 136.925 189.412 158.546C190.507 163.734 187.197 168.829 182.019 169.926L39.3751 200.15C34.1971 201.248 29.1118 197.932 28.0167 192.744C23.4529 171.123 37.247 149.889 58.8268 145.317ZM20.3888 194.36C14.9339 168.518 31.421 143.139 57.2136 137.674L140.462 120.035C166.254 114.57 191.585 131.088 197.04 156.93C199.026 166.338 193.023 175.578 183.633 177.568L40.9883 207.793C31.5975 209.783 22.3748 203.769 20.3888 194.36ZM86.8342 174.913C87.6334 176.653 89.4795 177.803 91.3331 177.334C93.1867 176.865 94.3307 174.954 93.6313 173.172C85.029 151.249 51.955 155.102 48.6025 178.417C48.3299 180.313 49.8811 181.91 51.7926 181.94C53.7041 181.97 55.2375 180.426 55.617 178.549C58.6973 163.311 80.3463 160.789 86.8342 174.913ZM160.617 158.651C158.875 159.439 156.856 158.631 155.764 157.059C146.902 144.296 126.031 150.587 125.669 166.13C125.624 168.045 124.385 169.835 122.498 170.142C120.611 170.448 118.804 169.149 118.74 167.234C117.955 143.692 149.84 134.081 162.15 154.149C163.151 155.781 162.36 157.864 160.617 158.651Z" fill="white"/>
</svg>
