<svg width="184" height="184" viewBox="0 0 184 184" fill="none" xmlns="http://www.w3.org/2000/svg">
<path fill-rule="evenodd" clip-rule="evenodd" d="M131.795 9.02849L144.271 56.8881C140.956 53.9814 137.094 52.6315 133.416 53.5068C125.818 55.3147 121.879 65.9315 124.617 77.2201C127.354 88.5087 135.733 96.1944 143.33 94.3865C150.928 92.5786 154.868 81.9618 152.13 70.6731C151.478 67.9862 150.507 65.5034 149.303 63.3041C149.295 63.2503 149.285 63.1962 149.271 63.1423L135.768 11.0578C164.493 26.6231 184 57.0335 184 92C184 142.81 142.81 184 92 184C41.1898 184 0 142.81 0 92C0 41.1898 41.1898 0 92 0C106.255 0 119.752 3.24185 131.795 9.02849ZM130.154 130.568C130.119 129.731 130.404 128.912 130.952 128.275C138.169 119.878 142.9 109.328 144.024 97.7297C144.081 97.1393 144.507 96.6492 145.07 96.4467C146.162 96.054 147.484 96.8156 147.375 97.961C146.198 110.29 141.176 121.51 133.509 130.431L132.113 158.916C132.219 161.474 129.49 163.188 127.2 162L102.5 149.431C97.9567 150.535 93.2075 151.121 88.3203 151.121C55.5586 151.121 29 124.814 29 92.3621C29 59.9106 55.5586 33.6035 88.3203 33.6035C104.381 33.6035 118.951 39.9256 129.632 50.1944C130.36 50.8944 130.123 52.0966 129.281 52.6574C128.65 53.078 127.787 53.0541 127.24 52.53C117.168 42.8727 103.445 36.9295 88.3203 36.9295C57.413 36.9295 32.3578 61.7475 32.3578 92.3621C32.3578 122.977 57.413 147.795 88.3203 147.795C92.9359 147.795 97.4166 147.242 101.7 146.201C102.495 146.008 103.333 146.109 104.058 146.485L127.04 158.163C127.804 158.559 128.713 157.988 128.678 157.135L130.154 130.568ZM148.454 84.9376C149.788 81.3433 150.101 76.5449 148.865 71.45C147.63 66.3551 145.151 62.221 142.314 59.6191C139.457 56.9982 136.568 56.1774 134.2 56.7408C131.833 57.3041 129.636 59.3352 128.292 62.9557C126.958 66.5499 126.646 71.3484 127.881 76.4432C129.117 81.5381 131.596 85.6723 134.432 88.2742C137.29 90.8951 140.179 91.7159 142.546 91.1525C144.914 90.5891 147.111 88.5581 148.454 84.9376ZM93.0629 68.9021L55.5255 76.7656C45.795 78.804 39.5751 88.2699 41.633 97.9083C42.1268 100.221 44.4198 101.699 46.7546 101.21L111.074 87.7362C113.409 87.2471 114.901 84.9758 114.408 82.6631C112.35 73.0247 102.793 66.8637 93.0629 68.9021ZM54.7981 73.3586C43.168 75.795 35.7339 87.1088 38.1935 98.6288C39.089 102.823 43.2476 105.504 47.482 104.617L111.802 91.1432C116.036 90.2561 118.743 86.1369 117.847 81.9426C115.388 70.4226 103.966 63.0588 92.3355 65.4951L54.7981 73.3586ZM70.1829 91.0388C69.3471 91.2477 68.5147 90.735 68.1543 89.9593C65.2289 83.6631 55.4672 84.7874 54.0782 91.5805C53.9071 92.4173 53.2157 93.1056 52.3538 93.0922C51.4919 93.0788 50.7924 92.3667 50.9153 91.5216C52.427 81.128 67.3403 79.4104 71.2192 89.1832C71.5346 89.9779 71.0187 90.8299 70.1829 91.0388ZM99.2353 82.0001C99.7276 82.7011 100.638 83.0611 101.424 82.71C102.21 82.359 102.566 81.4305 102.115 80.703C96.5641 71.7567 82.1869 76.0414 82.5411 86.5364C82.5699 87.3898 83.3847 87.9691 84.2356 87.8324C85.0865 87.6957 85.6452 86.8979 85.6653 86.0443C85.8285 79.1151 95.2393 76.3105 99.2353 82.0001Z" fill="url(#paint0_linear_18_93)"/>
<defs>
<linearGradient id="paint0_linear_18_93" x1="36.5783" y1="148.53" x2="192.313" y2="27.1566" gradientUnits="userSpaceOnUse">
<stop stop-color="#208F96"/>
<stop offset="1" stop-color="#92D5D9"/>
</linearGradient>
</defs>
</svg>
