<svg width="512" height="512" viewBox="0 0 512 512" fill="none" xmlns="http://www.w3.org/2000/svg">
<rect width="512" height="512" rx="256" fill="white"/>
<path fill-rule="evenodd" clip-rule="evenodd" d="M366.734 25.1228L401.451 158.297C392.225 150.209 381.48 146.453 371.245 148.889C350.104 153.919 339.141 183.462 346.759 214.873C354.377 246.285 377.691 267.671 398.833 262.641C419.974 257.61 430.937 228.068 423.319 196.656C421.505 189.179 418.803 182.27 415.452 176.151C415.43 176.001 415.401 175.85 415.364 175.7L377.788 30.7695C457.719 74.0817 512 158.702 512 256C512 397.385 397.385 512 256 512C114.615 512 0 397.385 0 256C0 114.615 114.615 0 256 0C295.665 0 333.223 9.0208 366.734 25.1228ZM362.167 363.32C362.07 360.992 362.863 358.713 364.388 356.938C384.469 333.573 397.634 304.217 400.763 271.944C400.922 270.301 402.107 268.937 403.673 268.373C406.711 267.281 410.391 269.4 410.086 272.587C406.813 306.894 392.837 338.114 371.502 362.938L367.618 442.201C367.915 449.32 360.321 454.087 353.949 450.783L285.218 415.809C272.575 418.881 259.36 420.51 245.761 420.51C154.598 420.51 80.6957 347.308 80.6957 257.008C80.6957 166.708 154.598 93.5054 245.761 93.5054C290.451 93.5054 330.993 111.097 360.714 139.671C362.74 141.619 362.081 144.965 359.739 146.525C357.982 147.695 355.58 147.629 354.059 146.17C326.034 119.298 287.847 102.76 245.761 102.76C159.758 102.76 90.039 171.819 90.039 257.008C90.039 342.196 159.758 411.255 245.761 411.255C258.604 411.255 271.072 409.717 282.993 406.821C285.203 406.284 287.535 406.564 289.552 407.61L353.504 440.105C355.628 441.207 358.159 439.618 358.06 437.245L362.167 363.32ZM413.091 236.348C416.802 226.347 417.672 212.995 414.234 198.818C410.795 184.64 403.897 173.137 396.005 165.897C388.054 158.604 380.015 156.32 373.427 157.887C366.839 159.455 360.725 165.107 356.987 175.181C353.275 185.182 352.406 198.535 355.844 212.712C359.282 226.889 366.18 238.392 374.073 245.633C382.024 252.926 390.062 255.209 396.65 253.642C403.238 252.074 409.352 246.423 413.091 236.348ZM258.958 191.728L154.506 213.609C127.43 219.281 110.122 245.621 115.848 272.44C117.222 278.876 123.603 282.989 130.1 281.628L309.076 244.136C315.573 242.775 319.726 236.454 318.352 230.019C312.625 203.199 286.034 186.055 258.958 191.728ZM152.482 204.128C120.12 210.908 99.4333 242.39 106.278 274.445C108.769 286.116 120.341 293.577 132.124 291.109L311.1 253.616C322.883 251.147 330.414 239.685 327.923 228.014C321.078 195.958 289.296 175.468 256.933 182.247L152.482 204.128ZM195.292 253.325C192.966 253.907 190.65 252.48 189.647 250.322C181.507 232.802 154.343 235.93 150.479 254.833C150.002 257.161 148.078 259.076 145.68 259.039C143.282 259.002 141.335 257.021 141.677 254.669C145.884 225.748 187.382 220.968 198.175 248.162C199.053 250.373 197.617 252.744 195.292 253.325ZM276.133 228.174C277.503 230.125 280.036 231.126 282.223 230.15C284.409 229.173 285.402 226.589 284.146 224.565C268.7 199.671 228.694 211.593 229.68 240.797C229.76 243.172 232.027 244.784 234.395 244.403C236.762 244.023 238.317 241.803 238.373 239.428C238.827 220.146 265.014 212.342 276.133 228.174Z" fill="url(#paint0_linear_27_97)"/>
<defs>
<linearGradient id="paint0_linear_27_97" x1="101.783" y1="413.301" x2="535.133" y2="75.5663" gradientUnits="userSpaceOnUse">
<stop stop-color="#208F96"/>
<stop offset="1" stop-color="#92D5D9"/>
</linearGradient>
</defs>
</svg>
